<svg width="716" height="981" viewBox="0 0 716 981" fill="none" xmlns="http://www.w3.org/2000/svg">
<path d="M325.72 1.52356C288.19 6.77356 246.42 22.7835 214.89 44.0535C194.38 58.0635 161.6 90.8335 147.59 111.354C133.58 132.364 119.07 163.394 112.82 186.654C105.06 215.174 102.56 246.194 102.56 323.494V394.294H60.04C15.51 394.294 5.25 396.294 1.5 405.554C0.75 407.804 0 515.374 0 644.464C0 867.864 0.25 879.874 4.75 894.384C17.26 934.914 52.78 967.184 94.81 976.184C119.58 981.444 596.15 981.184 621.17 975.934C653.19 969.174 683.96 946.664 701.22 917.144C715.73 892.124 715.48 897.384 715.48 642.954C715.48 514.614 714.73 407.794 713.98 405.544C709.47 394.034 713.73 394.284 450.3 394.284H202.63V325.984C202.63 288.454 203.88 248.434 205.13 236.924C211.13 189.144 235.9 149.613 276.18 123.593C323.71 92.8234 391.76 92.8234 439.29 123.593C490.83 157.113 512.84 203.894 512.84 281.204C512.84 304.224 512.84 394.478 512.84 394.478H612.9C612.9 394.478 612.9 302.474 612.9 273.454C612.65 188.894 588.88 127.104 536.85 75.0735C502.83 41.3035 464.3 19.2836 418.77 7.52356C391.76 0.77356 350.23 -1.97644 325.72 1.52356Z" fill="#F6F6F6"/>
</svg>
