<svg width="989" height="300" viewBox="0 0 989 300" fill="none" xmlns="http://www.w3.org/2000/svg">
<rect width="300" height="300" rx="28" fill="#228BE6"/>
<path d="M161.937 256.612C141.604 256.612 123.54 252.17 107.748 243.286C91.9547 234.205 79.7152 221.67 71.0291 205.68C62.343 189.492 58 171.133 58 150.602C58 129.676 62.5405 111.12 71.6214 94.932C80.7023 78.7443 93.0405 66.2087 108.636 57.3252C124.429 48.4417 141.9 44 161.049 44C176.447 44 189.871 45.8754 201.32 49.6262C212.968 53.377 224.121 58.6084 234.782 65.3204C236.361 66.11 237.743 67.4919 238.927 69.466C240.112 71.4401 240.704 73.6116 240.704 75.9806C240.704 79.3366 239.519 82.199 237.15 84.5679C234.979 86.9369 232.018 88.1214 228.267 88.1214C226.095 88.1214 224.023 87.6278 222.049 86.6408C212.77 81.1133 203.492 76.9676 194.214 74.2039C184.935 71.4401 174.867 70.0583 164.01 70.0583C149.006 70.0583 135.484 73.2168 123.442 79.534C111.4 85.8511 101.924 95.1294 95.0146 107.369C88.3026 119.411 84.9466 133.822 84.9466 150.602C84.9466 166 88.1052 179.819 94.4223 192.058C100.937 204.1 110.215 213.675 122.257 220.782C134.497 227.691 148.908 231.146 165.49 231.146C184.047 231.146 201.32 226.803 217.311 218.116V164.519H168.451C165.095 164.519 162.233 163.335 159.864 160.966C157.495 158.597 156.311 155.735 156.311 152.379C156.311 149.023 157.495 146.16 159.864 143.791C162.233 141.422 165.095 140.238 168.451 140.238H226.786C230.735 140.238 234.091 141.62 236.854 144.383C239.618 147.147 241 150.503 241 154.451V221.67C241 225.816 239.914 229.566 237.743 232.922C235.769 236.081 233.104 238.45 229.748 240.029C207.638 251.084 185.034 256.612 161.937 256.612Z" fill="white"/>
<path d="M165.987 212.433C154.215 212.433 143.62 209.939 134.202 204.949C124.902 199.844 117.545 192.592 112.13 183.193C106.832 173.679 104.183 162.597 104.183 149.95C104.183 137.302 106.832 126.279 112.13 116.881C117.545 107.366 124.902 100.114 134.202 95.1248C143.62 90.0194 154.215 87.4667 165.987 87.4667C173.993 87.4667 181.115 88.3949 187.354 90.2514C193.711 92.108 200.009 94.7767 206.248 98.2577C208.838 99.65 210.133 101.855 210.133 104.871C210.133 106.612 209.486 108.178 208.191 109.571C206.896 110.847 205.189 111.485 203.07 111.485C201.893 111.485 200.833 111.253 199.891 110.789C194.712 108.12 189.65 106.09 184.705 104.697C179.761 103.305 174.051 102.609 167.577 102.609C157.453 102.609 148.8 104.697 141.619 108.875C134.556 112.936 129.199 118.563 125.55 125.757C122.018 132.835 120.252 140.899 120.252 149.95C120.252 159 122.018 167.123 125.55 174.317C129.199 181.395 134.556 187.022 141.619 191.199C148.8 195.261 157.453 197.291 167.577 197.291C174.051 197.291 179.761 196.595 184.705 195.203C189.65 193.81 194.712 191.78 199.891 189.111C200.833 188.647 201.893 188.415 203.07 188.415C205.189 188.415 206.896 189.053 208.191 190.329C209.486 191.606 210.133 193.172 210.133 195.028C210.133 198.045 208.838 200.25 206.248 201.642C200.009 205.123 193.711 207.792 187.354 209.649C181.115 211.505 173.993 212.433 165.987 212.433Z" fill="white"/>
<path d="M405.318 151.33C395.054 151.33 385.935 149.088 377.963 144.603C369.99 140.019 363.811 133.691 359.426 125.619C355.042 117.447 352.849 108.179 352.849 97.8145C352.849 87.2509 355.141 77.8832 359.725 69.7114C364.31 61.5395 370.538 55.2114 378.411 50.7268C386.384 46.2423 395.203 44 404.87 44C412.643 44 419.42 44.9467 425.2 46.8402C431.079 48.7337 436.71 51.3746 442.092 54.7629C442.889 55.1615 443.586 55.8591 444.184 56.8557C444.782 57.8522 445.081 58.9485 445.081 60.1443C445.081 61.8385 444.483 63.2835 443.287 64.4794C442.191 65.6753 440.696 66.2732 438.803 66.2732C437.707 66.2732 436.66 66.0241 435.664 65.5258C430.98 62.7354 426.296 60.6426 421.612 59.2474C416.928 57.8523 411.846 57.1547 406.365 57.1547C398.791 57.1547 391.964 58.7492 385.885 61.9382C379.806 65.1272 375.023 69.811 371.535 75.9897C368.146 82.0688 366.452 89.3437 366.452 97.8145C366.452 105.588 368.047 112.564 371.236 118.742C374.524 124.821 379.208 129.655 385.287 133.242C391.466 136.73 398.741 138.474 407.112 138.474C416.48 138.474 425.2 136.282 433.272 131.897V104.84H408.607C406.913 104.84 405.468 104.242 404.272 103.046C403.076 101.851 402.478 100.406 402.478 98.7114C402.478 97.0173 403.076 95.5722 404.272 94.3764C405.468 93.1805 406.913 92.5825 408.607 92.5825H438.055C440.049 92.5825 441.743 93.2801 443.138 94.6753C444.533 96.0705 445.231 97.7647 445.231 99.7578V133.691C445.231 135.784 444.683 137.677 443.586 139.371C442.59 140.966 441.244 142.162 439.55 142.959C428.389 148.54 416.978 151.33 405.318 151.33Z" fill="black"/>
<path d="M478.99 149.835C477.096 149.835 475.502 149.187 474.206 147.892C472.911 146.596 472.263 145.002 472.263 143.108V52.3711C472.263 50.4777 472.911 48.8832 474.206 47.5876C475.502 46.1924 477.096 45.4948 478.99 45.4948H538.933C540.727 45.4948 542.222 46.1426 543.418 47.4381C544.713 48.634 545.361 50.1289 545.361 51.9227C545.361 53.7165 544.713 55.2114 543.418 56.4072C542.222 57.6031 540.727 58.201 538.933 58.201H485.866V91.2372H533.552C535.345 91.2372 536.84 91.885 538.036 93.1805C539.332 94.3764 539.979 95.8712 539.979 97.665C539.979 99.4588 539.332 100.954 538.036 102.15C536.84 103.345 535.345 103.943 533.552 103.943H485.866V137.129H538.933C540.727 137.129 542.222 137.777 543.418 139.072C544.713 140.268 545.361 141.763 545.361 143.557C545.361 145.351 544.713 146.846 543.418 148.041C542.222 149.237 540.727 149.835 538.933 149.835H478.99Z" fill="black"/>
<path d="M574.315 150.583C572.422 150.583 570.827 149.935 569.532 148.639C568.236 147.344 567.589 145.749 567.589 143.856V54.6134C567.589 51.9227 568.535 49.6306 570.429 47.7371C572.322 45.744 574.614 44.7474 577.305 44.7474H579.248C582.437 44.7474 585.178 46.2423 587.47 49.232L645.022 132.345V51.6237C645.022 49.7302 645.669 48.1357 646.965 46.8402C648.261 45.445 649.855 44.7474 651.748 44.7474C653.642 44.7474 655.236 45.445 656.532 46.8402C657.927 48.1357 658.625 49.7302 658.625 51.6237V140.866C658.625 143.557 657.628 145.849 655.635 147.742C653.742 149.636 651.45 150.583 648.759 150.583H646.965C645.37 150.583 643.876 150.234 642.48 149.536C641.085 148.739 639.939 147.742 639.042 146.547L581.192 62.9846V143.856C581.192 145.749 580.494 147.344 579.099 148.639C577.803 149.935 576.209 150.583 574.315 150.583Z" fill="black"/>
<path d="M694.312 149.835C692.418 149.835 690.824 149.187 689.528 147.892C688.233 146.596 687.585 145.002 687.585 143.108V52.3711C687.585 50.4777 688.233 48.8832 689.528 47.5876C690.824 46.1924 692.418 45.4948 694.312 45.4948H754.255C756.049 45.4948 757.544 46.1426 758.74 47.4381C760.035 48.634 760.683 50.1289 760.683 51.9227C760.683 53.7165 760.035 55.2114 758.74 56.4072C757.544 57.6031 756.049 58.201 754.255 58.201H701.188V91.2372H748.874C750.668 91.2372 752.163 91.885 753.358 93.1805C754.654 94.3764 755.302 95.8712 755.302 97.665C755.302 99.4588 754.654 100.954 753.358 102.15C752.163 103.345 750.668 103.943 748.874 103.943H701.188V137.129H754.255C756.049 137.129 757.544 137.777 758.74 139.072C760.035 140.268 760.683 141.763 760.683 143.557C760.683 145.351 760.035 146.846 758.74 148.041C757.544 149.237 756.049 149.835 754.255 149.835H694.312Z" fill="black"/>
<path d="M815.797 151.33C803.141 151.33 791.282 148.938 780.22 144.155C779.024 143.657 778.028 142.859 777.23 141.763C776.433 140.567 776.035 139.321 776.035 138.026C776.035 136.332 776.583 134.887 777.679 133.691C778.875 132.395 780.37 131.748 782.163 131.748C783.16 131.748 784.107 131.947 785.004 132.345C794.172 136.431 803.988 138.474 814.452 138.474C831.892 138.474 840.612 132.744 840.612 121.284C840.612 118.294 839.466 115.803 837.174 113.809C834.981 111.816 832.241 110.272 828.952 109.175C825.663 107.979 820.98 106.584 814.901 104.99C806.828 102.897 800.301 100.904 795.318 99.0104C790.335 97.0173 786.05 94.0774 782.462 90.1908C778.875 86.3042 777.081 81.122 777.081 74.6444C777.081 68.964 778.576 63.8316 781.565 59.2474C784.555 54.5636 788.94 50.8763 794.72 48.1856C800.6 45.3952 807.626 44 815.797 44C826.76 44 836.675 45.6443 845.545 48.933C848.335 49.9296 849.731 51.9227 849.731 54.9124C849.731 56.5069 849.182 57.9519 848.086 59.2474C846.99 60.543 845.545 61.1907 843.751 61.1907C843.153 61.1907 842.356 60.9914 841.359 60.5928C833.586 57.9021 825.564 56.5567 817.292 56.5567C809.419 56.5567 802.992 58.0516 798.009 61.0413C793.126 64.031 790.684 68.2165 790.684 73.598C790.684 77.1856 791.83 80.1255 794.122 82.4176C796.514 84.61 799.454 86.354 802.942 87.6496C806.529 88.8454 811.363 90.141 817.442 91.5362C825.315 93.4296 831.643 95.3231 836.426 97.2166C841.31 99.11 845.445 102.05 848.834 106.036C852.322 110.022 854.066 115.404 854.066 122.181C854.066 127.761 852.471 132.794 849.282 137.278C846.093 141.663 841.609 145.102 835.828 147.593C830.048 150.084 823.371 151.33 815.797 151.33Z" fill="black"/>
<path d="M881.752 150.583C879.858 150.583 878.264 149.935 876.968 148.639C875.673 147.344 875.025 145.749 875.025 143.856V51.6237C875.025 49.7302 875.673 48.1357 876.968 46.8402C878.264 45.445 879.858 44.7474 881.752 44.7474C883.645 44.7474 885.24 45.445 886.535 46.8402C887.93 48.1357 888.628 49.7302 888.628 51.6237V143.856C888.628 145.749 887.93 147.344 886.535 148.639C885.24 149.935 883.645 150.583 881.752 150.583Z" fill="black"/>
<path d="M950.538 151.33C937.882 151.33 926.023 148.938 914.961 144.155C913.765 143.657 912.768 142.859 911.971 141.763C911.174 140.567 910.775 139.321 910.775 138.026C910.775 136.332 911.323 134.887 912.419 133.691C913.615 132.395 915.11 131.748 916.904 131.748C917.901 131.748 918.847 131.947 919.744 132.345C928.913 136.431 938.729 138.474 949.193 138.474C966.633 138.474 975.353 132.744 975.353 121.284C975.353 118.294 974.207 115.803 971.914 113.809C969.722 111.816 966.981 110.272 963.693 109.175C960.404 107.979 955.72 106.584 949.641 104.99C941.569 102.897 935.042 100.904 930.059 99.0104C925.076 97.0173 920.791 94.0774 917.203 90.1908C913.615 86.3042 911.822 81.122 911.822 74.6444C911.822 68.964 913.316 63.8316 916.306 59.2474C919.296 54.5636 923.681 50.8763 929.461 48.1856C935.341 45.3952 942.366 44 950.538 44C961.5 44 971.416 45.6443 980.286 48.933C983.076 49.9296 984.471 51.9227 984.471 54.9124C984.471 56.5069 983.923 57.9519 982.827 59.2474C981.731 60.543 980.286 61.1907 978.492 61.1907C977.894 61.1907 977.097 60.9914 976.1 60.5928C968.327 57.9021 960.304 56.5567 952.033 56.5567C944.16 56.5567 937.732 58.0516 932.749 61.0413C927.866 64.031 925.425 68.2165 925.425 73.598C925.425 77.1856 926.571 80.1255 928.863 82.4176C931.255 84.61 934.194 86.354 937.682 87.6496C941.27 88.8454 946.103 90.141 952.182 91.5362C960.055 93.4296 966.384 95.3231 971.167 97.2166C976.05 99.11 980.186 102.05 983.574 106.036C987.062 110.022 988.806 115.404 988.806 122.181C988.806 127.761 987.212 132.794 984.023 137.278C980.834 141.663 976.349 145.102 970.569 147.593C964.789 150.084 958.112 151.33 950.538 151.33Z" fill="black"/>
<path d="M387.871 256.61C380.753 256.61 374.346 255.08 368.652 252.019C363.028 248.887 358.579 244.438 355.305 238.672C352.102 232.835 350.5 226.037 350.5 218.278C350.5 210.519 352.102 203.756 355.305 197.991C358.579 192.154 363.028 187.705 368.652 184.644C374.346 181.512 380.753 179.946 387.871 179.946C392.712 179.946 397.018 180.515 400.791 181.654C404.635 182.793 408.443 184.43 412.216 186.566C413.782 187.42 414.565 188.772 414.565 190.623C414.565 191.691 414.173 192.652 413.39 193.506C412.607 194.289 411.575 194.681 410.294 194.681C409.582 194.681 408.941 194.538 408.372 194.254C405.24 192.616 402.179 191.371 399.189 190.516C396.2 189.662 392.747 189.235 388.832 189.235C382.71 189.235 377.478 190.516 373.136 193.079C368.865 195.57 365.626 199.023 363.42 203.436C361.284 207.778 360.217 212.726 360.217 218.278C360.217 223.83 361.284 228.813 363.42 233.226C365.626 237.568 368.865 241.021 373.136 243.583C377.478 246.075 382.71 247.321 388.832 247.321C392.747 247.321 396.2 246.893 399.189 246.039C402.179 245.185 405.24 243.939 408.372 242.302C408.941 242.017 409.582 241.875 410.294 241.875C411.575 241.875 412.607 242.267 413.39 243.05C414.173 243.833 414.565 244.794 414.565 245.933C414.565 247.783 413.782 249.136 412.216 249.99C408.443 252.125 404.635 253.763 400.791 254.902C397.018 256.041 392.712 256.61 387.871 256.61Z" fill="black"/>
<path d="M460.134 256.61C452.66 256.61 446.111 254.973 440.488 251.698C434.864 248.424 430.522 243.904 427.461 238.138C424.4 232.372 422.799 225.752 422.656 218.278C422.799 210.804 424.4 204.184 427.461 198.418C430.522 192.652 434.864 188.132 440.488 184.857C446.111 181.583 452.66 179.946 460.134 179.946C467.609 179.946 474.122 181.583 479.674 184.857C485.298 188.132 489.64 192.687 492.701 198.524C495.833 204.29 497.47 210.875 497.612 218.278C497.47 225.681 495.833 232.301 492.701 238.138C489.64 243.904 485.298 248.424 479.674 251.698C474.122 254.973 467.609 256.61 460.134 256.61ZM460.134 247.534C465.829 247.534 470.776 246.253 474.976 243.69C479.176 241.128 482.379 237.64 484.586 233.226C486.792 228.813 487.896 223.83 487.896 218.278C487.896 212.726 486.792 207.743 484.586 203.329C482.379 198.916 479.176 195.428 474.976 192.865C470.776 190.303 465.829 189.022 460.134 189.022C454.369 189.022 449.386 190.303 445.186 192.865C441.057 195.428 437.89 198.916 435.683 203.329C433.476 207.743 432.373 212.726 432.373 218.278C432.373 223.83 433.476 228.813 435.683 233.226C437.89 237.64 441.057 241.128 445.186 243.69C449.386 246.253 454.369 247.534 460.134 247.534Z" fill="black"/>
<path d="M543.902 256.61C538.848 256.61 533.972 255.542 529.274 253.407C524.575 251.271 520.732 248.032 517.742 243.69C514.752 239.277 513.257 233.903 513.257 227.567V185.391C513.257 184.039 513.72 182.9 514.645 181.974C515.571 180.978 516.71 180.48 518.062 180.48C519.415 180.48 520.554 180.978 521.479 181.974C522.476 182.9 522.974 184.039 522.974 185.391V227.888C522.974 232.159 523.935 235.789 525.857 238.779C527.85 241.768 530.448 244.011 533.651 245.505C536.855 247 540.271 247.748 543.902 247.748C547.532 247.748 550.949 247 554.152 245.505C557.355 244.011 559.918 241.768 561.84 238.779C563.833 235.789 564.83 232.159 564.83 227.888V185.391C564.83 184.039 565.292 182.9 566.218 181.974C567.143 180.978 568.282 180.48 569.634 180.48C570.987 180.48 572.126 180.978 573.051 181.974C574.048 182.9 574.546 184.039 574.546 185.391V227.567C574.546 233.903 573.051 239.277 570.062 243.69C567.072 248.032 563.228 251.271 558.53 253.407C553.832 255.542 548.956 256.61 543.902 256.61Z" fill="black"/>
<path d="M599.511 256.076C598.159 256.076 597.02 255.613 596.095 254.688C595.169 253.763 594.707 252.624 594.707 251.271V185.925C594.707 184.573 595.169 183.434 596.095 182.508C597.02 181.512 598.159 181.013 599.511 181.013H624.39C634.071 181.013 641.332 183.007 646.172 186.993C651.012 190.979 653.433 196.211 653.433 202.689C653.433 206.96 652.223 210.875 649.802 214.434C647.453 217.922 644.001 220.449 639.445 222.015C644.57 223.367 648.058 226.571 649.909 231.625C651.831 236.608 652.792 241.519 652.792 246.36V251.271C652.792 252.624 652.329 253.763 651.404 254.688C650.479 255.613 649.34 256.076 647.987 256.076C646.492 256.076 645.282 255.649 644.357 254.795C643.503 253.869 643.076 252.695 643.076 251.271V248.068C643.076 244.509 642.755 241.234 642.115 238.245C641.474 235.184 639.943 232.479 637.523 230.13C635.103 227.71 631.437 226.499 626.525 226.499H604.423V251.271C604.423 252.624 603.925 253.763 602.928 254.688C602.003 255.613 600.864 256.076 599.511 256.076ZM623.749 217.317C629.871 217.317 634.711 216.107 638.271 213.687C641.901 211.266 643.716 207.849 643.716 203.436C643.716 199.165 642.15 195.891 639.018 193.613C635.957 191.335 630.69 190.196 623.215 190.196H604.423V217.317H623.749Z" fill="black"/>
<path d="M694.211 256.61C685.171 256.61 676.7 254.902 668.799 251.485C667.945 251.129 667.233 250.559 666.664 249.776C666.094 248.922 665.809 248.032 665.809 247.107C665.809 245.897 666.201 244.865 666.984 244.011C667.838 243.085 668.906 242.622 670.187 242.622C670.899 242.622 671.575 242.765 672.216 243.05C678.765 245.968 685.776 247.427 693.25 247.427C705.708 247.427 711.936 243.334 711.936 235.148C711.936 233.013 711.117 231.233 709.48 229.81C707.914 228.386 705.957 227.283 703.608 226.499C701.259 225.645 697.913 224.649 693.571 223.51C687.805 222.015 683.142 220.591 679.583 219.239C676.024 217.815 672.963 215.715 670.401 212.939C667.838 210.163 666.557 206.461 666.557 201.835C666.557 197.777 667.625 194.111 669.76 190.837C671.896 187.491 675.028 184.857 679.156 182.935C683.356 180.942 688.374 179.946 694.211 179.946C702.042 179.946 709.124 181.12 715.46 183.469C717.453 184.181 718.449 185.605 718.449 187.74C718.449 188.879 718.058 189.911 717.275 190.837C716.492 191.762 715.46 192.225 714.178 192.225C713.751 192.225 713.182 192.082 712.47 191.798C706.918 189.876 701.187 188.915 695.279 188.915C689.656 188.915 685.064 189.983 681.505 192.118C678.017 194.254 676.273 197.243 676.273 201.087C676.273 203.65 677.092 205.75 678.729 207.387C680.438 208.953 682.537 210.199 685.029 211.124C687.591 211.978 691.044 212.904 695.386 213.9C701.009 215.253 705.53 216.605 708.946 217.958C712.434 219.31 715.389 221.41 717.809 224.257C720.3 227.105 721.546 230.948 721.546 235.789C721.546 239.775 720.407 243.37 718.129 246.573C715.851 249.705 712.648 252.161 708.519 253.941C704.391 255.72 699.621 256.61 694.211 256.61Z" fill="black"/>
<path d="M741.322 255.542C739.969 255.542 738.83 255.08 737.905 254.154C736.98 253.229 736.517 252.09 736.517 250.737V185.925C736.517 184.573 736.98 183.434 737.905 182.508C738.83 181.512 739.969 181.013 741.322 181.013H784.138C785.42 181.013 786.487 181.476 787.342 182.401C788.267 183.256 788.73 184.323 788.73 185.605C788.73 186.886 788.267 187.954 787.342 188.808C786.487 189.662 785.42 190.089 784.138 190.089H746.233V213.687H780.295C781.576 213.687 782.644 214.149 783.498 215.075C784.423 215.929 784.886 216.997 784.886 218.278C784.886 219.559 784.423 220.627 783.498 221.481C782.644 222.335 781.576 222.762 780.295 222.762H746.233V246.466H784.138C785.42 246.466 786.487 246.929 787.342 247.854C788.267 248.709 788.73 249.776 788.73 251.058C788.73 252.339 788.267 253.407 787.342 254.261C786.487 255.115 785.42 255.542 784.138 255.542H741.322Z" fill="black"/>
<path d="M828.097 256.61C819.057 256.61 810.586 254.902 802.685 251.485C801.83 251.129 801.119 250.559 800.549 249.776C799.98 248.922 799.695 248.032 799.695 247.107C799.695 245.897 800.087 244.865 800.87 244.011C801.724 243.085 802.791 242.622 804.073 242.622C804.785 242.622 805.461 242.765 806.101 243.05C812.65 245.968 819.662 247.427 827.136 247.427C839.593 247.427 845.822 243.334 845.822 235.148C845.822 233.013 845.003 231.233 843.366 229.81C841.8 228.386 839.842 227.283 837.493 226.499C835.144 225.645 831.799 224.649 827.456 223.51C821.691 222.015 817.028 220.591 813.469 219.239C809.91 217.815 806.849 215.715 804.286 212.939C801.724 210.163 800.442 206.461 800.442 201.835C800.442 197.777 801.51 194.111 803.646 190.837C805.781 187.491 808.913 184.857 813.042 182.935C817.242 180.942 822.26 179.946 828.097 179.946C835.927 179.946 843.01 181.12 849.345 183.469C851.338 184.181 852.335 185.605 852.335 187.74C852.335 188.879 851.943 189.911 851.16 190.837C850.377 191.762 849.345 192.225 848.064 192.225C847.637 192.225 847.067 192.082 846.356 191.798C840.803 189.876 835.073 188.915 829.165 188.915C823.541 188.915 818.95 189.983 815.391 192.118C811.903 194.254 810.159 197.243 810.159 201.087C810.159 203.65 810.978 205.75 812.615 207.387C814.323 208.953 816.423 210.199 818.914 211.124C821.477 211.978 824.929 212.904 829.272 213.9C834.895 215.253 839.415 216.605 842.832 217.958C846.32 219.31 849.274 221.41 851.694 224.257C854.186 227.105 855.431 230.948 855.431 235.789C855.431 239.775 854.293 243.37 852.015 246.573C849.737 249.705 846.534 252.161 842.405 253.941C838.276 255.72 833.507 256.61 828.097 256.61Z" fill="black"/>
</svg>
